<svg viewBox="0 0 204 70" xmlns="http://www.w3.org/2000/svg" xmlns:xlink="http://www.w3.org/1999/xlink"><linearGradient id="a" gradientTransform="matrix(166.87269818 -224.31780803 224.31780803 166.87269818 13504.364 -288324.447)" gradientUnits="userSpaceOnUse" x1="-856.346" x2="-856.24" y1="576.917" y2="576.917"><stop offset="0" stop-color="#74ea78"/><stop offset="1" stop-color="#1ec426"/></linearGradient><path d="m151.538 29.39h3.221l4.986 12.667 4.986-12.667h3.127l-6.379 15.299h-3.562l-6.38-15.299z" fill="#1ec426"/><path d="m170.107 37.38v-7.99h2.942v7.99c0 3.314 1.827 4.986 4.614 4.986s4.615-1.672 4.615-4.986v-7.99h2.942v7.99c0 5.079-3.035 7.712-7.557 7.712s-7.556-2.602-7.556-7.712" fill="#1ec426"/><path d="m200.903 35.491c-.588-2.447-2.602-3.778-5.079-3.778-2.539 0-4.46 1.363-5.048 3.778zm-13.317 1.549c0-4.646 3.407-8.052 8.238-8.052s8.176 3.407 8.176 8.052v1.084h-13.317c.434 2.725 2.478 4.243 5.141 4.243 1.982 0 3.376-.619 4.274-1.951h3.252c-1.177 2.849-3.964 4.677-7.526 4.677-4.831 0-8.238-3.407-8.238-8.052" fill="#1ec426"/><g fill="#022438"><path d="m66.222 25.956h-7.099v-2.911h17.388v2.911h-7.13v18.734h-3.159z"/><path d="m135.493 35.491c-.588-2.447-2.602-3.778-5.079-3.778-2.539 0-4.46 1.363-5.048 3.778zm-13.317 1.549c0-4.646 3.407-8.052 8.238-8.052s8.176 3.407 8.176 8.052v1.084h-13.317c.434 2.725 2.478 4.243 5.141 4.243 1.982 0 3.376-.619 4.274-1.951h3.252c-1.177 2.849-3.964 4.677-7.526 4.677-4.831 0-8.238-3.407-8.238-8.052"/><path d="m79.206 32.735v-3.345h-2.695v7.526c0 .042.005.082.006.124v7.65h2.906v-7.65c0-3.097 2.106-5.327 5.265-5.327.158 0 .312.01.465.021v-2.746c-2.663 0-4.924 1.27-5.946 3.747"/><path d="m143.65 32.735v-3.345h-2.694v7.526c0 .042.005.082.005.124v7.65h2.906v-7.65c0-3.097 2.106-5.327 5.265-5.327.158 0 .312.01.465.021v-2.746c-2.663 0-4.924 1.27-5.946 3.747"/><path d="m95.43 41.653c-1.067.635-3.065.812-4 .54-.693-.084-1.935-.804-1.877-2.171 0-1.899 1.826-2.213 2.9-2.213h5.674c-.04 1.324-.905 2.923-2.696 3.843m5.596-7.205c-.058-1.645-.86-3.277-2.381-4.209-1.305-.802-3.101-1.103-4.774-1.093-3.274.021-6.506 1.571-6.87 4.699h2.836c.57-1.383 1.817-2.156 4.071-2.156 1.268 0 2.385.242 3.182.761.619.404 1.199 1.306 1.199 2.578v.578h-4.406c-.775-.043-1.638-.022-2.491.099-1.469.158-2.741.649-3.608 1.502-.049.046-.097.093-.143.142-.018.019-.037.037-.054.057-.53.574-.885 1.312-.966 2.25-.009.086-.01.178-.015.267 0 .018-.003.036-.003.054v.004c-.004.085-.013.167-.013.254 0 .054.006.103.008.155.002.535.084 1.018.239 1.448.664 1.96 2.619 2.932 5.203 3.033.138.006.277.012.414.012h.041c2.441-.015 4.813-1.329 5.795-3.178v2.913h2.747v-8.645s.003-.732-.01-1.525"/><path d="m111.7 42.367c-.158 0-.312-.01-.465-.021-2.897-.209-4.8-2.364-4.8-5.306 0-3.097 2.106-5.327 5.265-5.327 3.128 0 5.234 2.23 5.234 5.327s-2.106 5.327-5.234 5.327m5.234-19.322v9.04c-1.115-1.982-3.221-3.097-5.699-3.097-3.995 0-7.773 2.88-7.773 7.959 0 4.635 3.177 7.912 7.773 8.132 2.478 0 4.584-1.103 5.699-3.085v2.623h2.942v-21.573h-2.942z"/><path d="m6.716 36.546c.022.162.047.323.074.483-.027-.161-.052-.322-.074-.483"/><path d="m2.116 35.118c.002.032.004.063.006.095 0-.004 0-.009 0-.013-.002-.027-.004-.055-.005-.082"/><path d="m2.273 36.935c.01.075.022.15.032.225-.003-.023-.006-.045-.009-.068-.007-.053-.017-.104-.023-.156"/><path d="m2.175 36.031c.005.057.012.114.017.17-.001-.011-.002-.023-.003-.034-.004-.045-.011-.091-.014-.136"/><path d="m2.19 36.167c.001.011.002.023.003.034.012.132.028.264.043.395-.017-.142-.033-.285-.046-.429"/><path d="m2.121 35.2s0 .009 0 .014c.005.115.015.23.023.345-.008-.12-.018-.239-.023-.359"/><path d="m6.8 37.132.005-.007c-.006-.031-.009-.064-.015-.095-.027-.16-.052-.321-.074-.483-.016-.112-.029-.223-.043-.336-.008-.068-.019-.135-.026-.203.039.378.088.753.152 1.125"/><path d="m28.952 54.961c-.062.016-.125.03-.187.046.062-.016.125-.03.187-.046"/><path d="m25.764 55.537c-.142.014-.285.022-.427.034.142-.012.285-.02.427-.034"/><path d="m20.206 50.865c-.031-.006-.063-.011-.095-.018.031.007.064.012.095.018"/><path d="m21.099 51.018c-.05-.007-.101-.012-.151-.02.05.008.101.013.151.02"/><path d="m19.368 50.676c-.027-.007-.055-.013-.083-.02.027.007.055.013.083.02"/><path d="m22.107 51.131c-.104-.009-.208-.014-.311-.024.103.01.207.015.311.024"/><path d="m26.841 55.399c-.084.013-.168.022-.252.034.084-.012.168-.021.252-.034"/><path d="m29.99 54.662c-.068.021-.135.041-.202.061.068-.021.135-.04.202-.061"/><path d="m27.902 55.207c-.065.013-.13.024-.195.037.065-.012.131-.023.195-.037"/><path d="m16.972 49.872c-.023-.01-.046-.02-.069-.029.023.009.046.019.069.029"/><path d="m31.01 54.311c-.072.026-.143.052-.215.078.072-.026.144-.052.215-.078"/><path d="m23.549 51.197c-.297 0-.593-.008-.888-.023.294.016.59.023.888.023"/><path d="m18.558 50.448c-.029-.009-.058-.017-.087-.026.029.009.058.018.087.026"/><path d="m17.763 50.182c-.03-.011-.061-.022-.091-.033.03.011.061.022.091.033"/><path d="m27.726 50.677c-.244.061-.49.119-.738.171.248-.051.493-.109.738-.171"/><path d="m17.109 54.662c-.272-.086-.541-.178-.808-.274.268.097.537.189.808.274"/><path d="m19.196 55.207c-.291-.06-.579-.129-.865-.2.287.072.575.141.865.2"/><path d="m18.147 54.961c-.282-.073-.562-.154-.839-.239.278.085.557.166.839.239"/><path d="m14.651 53.725c.151.069.305.129.457.194-.187-.08-.371-.166-.555-.251.034.018.063.041.098.057"/><path d="m16.091 54.312c-.266-.099-.53-.203-.791-.312.262.109.526.214.791.312"/><path d="m24.67 55.622c-.372.019-.745.029-1.121.029.376 0 .749-.01 1.121-.029"/><path d="m21.333 55.537c-.277-.028-.551-.066-.824-.105.274.038.548.076.824.105"/><path d="m20.258 55.399c-.292-.045-.58-.099-.868-.155.288.056.577.11.868.155"/><path d="m22.429 55.622c-.223-.011-.445-.033-.666-.051.222.019.443.04.666.051"/><path d="m24.99 51.132c-.184.015-.368.033-.553.042.185-.01.369-.027.553-.042"/><path d="m28.536 50.449c-.238.073-.479.142-.721.205.242-.062.482-.132.721-.205"/><path d="m26.889 50.866c-.244.049-.49.093-.738.132.248-.038.493-.084.738-.132"/><path d="m25.998 51.018c-.23.034-.461.064-.695.088.233-.024.464-.055.695-.088"/><path d="m29.33 50.183c-.231.084-.464.163-.699.237.234-.073.468-.153.699-.237"/><path d="m2.148 35.624c.009.136.015.272.027.407-.011-.132-.017-.265-.026-.397 0-.003 0-.006 0-.01"/><path d="m2.116 35.118c-.013-.306-.02-.613-.02-.92 0 .307.007.614.02.92"/><path d="m2.249 36.72c.009.072.014.143.024.215-.008-.066-.014-.131-.021-.197-.001-.006-.002-.012-.003-.018"/><path d="m2.236 36.596c.005.041.008.083.013.124 0 .006.002.012.002.019-.006-.047-.01-.096-.015-.143"/><path d="m2.144 35.559c.002.022.003.043.004.065 0 .004 0 .007.001.01-.002-.025-.004-.05-.005-.075"/><path d="m2.149 35.633c.009.133.014.265.026.397.004.046.01.091.014.137-.017-.177-.029-.355-.041-.534"/><path d="m2.096 34.198c0 .307.007.614.02.92.001.027.004.055.005.082-.016-.332-.025-.666-.025-1.002"/><path d="m2.251 36.739c.008.066.013.131.021.197.007.052.017.104.024.156-.016-.117-.031-.235-.045-.353"/><path d="m4.283 43.626.126.258c-.037-.073-.071-.147-.107-.22-.006-.012-.013-.025-.019-.038"/><path d="m4.702 44.44c.047.087.094.174.143.261-.039-.07-.077-.142-.116-.213-.009-.016-.019-.031-.027-.047"/><path d="m4.654 44.348c.017.03.032.061.049.092.009.015.019.031.027.047-.026-.046-.051-.093-.076-.14"/><path d="m4.253 43.562.03.063c.006.012.013.025.019.038-.017-.034-.033-.068-.049-.101"/><path d="m4.303 43.663c.036.073.071.147.107.22.074.147.152.291.23.436-.117-.216-.228-.436-.337-.657"/></g><image height="1" transform="matrix(.198 0 0 .1 16.289 31.712)" width="1" xlink:href="traderview-color_204_70-1.png"/><image height="1" transform="matrix(.044 0 0 .026 16.255 31.809)" width="1" xlink:href="traderview-color_204_70-2.png"/><image height="1" transform="matrix(.447 0 0 .419 8.592 42.278)" width="1" xlink:href="traderview-color_204_70-3.png"/><path d="m9.932 44.372c.066.088.134.176.202.263-.068-.087-.136-.175-.202-.263" fill="#022438"/><path d="m9.538 43.824c.036.052.073.104.109.156-.037-.052-.074-.104-.109-.156" fill="#022438"/><path d="m31.576 14.298c-2.552-1.031-5.253-1.553-8.027-1.553-11.83 0-21.454 9.624-21.454 21.454 0 .336.01.669.025 1.002.006.12.015.238.023.358.002.025.004.05.005.075.012.178.025.356.041.534.013.143.029.286.046.429.005.047.01.095.015.142.014.118.029.235.045.353l.009.069c.019.136.041.27.062.406.01.06.017.121.027.181.005.028.009.057.013.086.014.084.031.168.047.251.025.137.053.274.081.41.016.076.029.153.045.229.003.015.006.029.009.044.014.063.029.125.044.188.033.146.07.291.106.436.018.071.034.143.052.215.058.22.121.44.186.658.021.072.04.145.062.216.066.213.136.424.208.635.018.052.033.105.052.157.004.012.008.025.012.037.005.013.01.025.014.037.051.143.104.285.157.426l.002-.002c.022.059.043.118.066.176.007.019.014.038.022.057.026.067.051.133.077.2.006.015.013.03.02.046.07.172.142.342.216.512.007.015.013.031.02.046.035.081.07.161.106.242.027.059.056.117.083.176.052.113.105.225.16.337.016.034.033.067.049.101.109.22.22.44.337.656.005.009.009.019.014.028.025.046.05.093.075.14.039.071.076.142.116.213.079.141.162.281.244.421.075.126.15.253.227.378.08.129.162.256.245.384.073.113.145.226.22.337l-5.365 7.513c-.715 1.001-.483 2.392.518 3.107.392.281.844.415 1.293.415.695 0 1.379-.324 1.814-.933l4.719-6.607.85-1.189.726-1.017.637-.893.406-.569c-.803-.825-1.524-1.729-2.148-2.702.101.16.201.321.309.477-.345-.499-.661-1.011-.947-1.538-.877-1.612-1.48-3.344-1.792-5.155-.056-.325-.097-.654-.134-.984-.014-.121-.028-.241-.039-.362-.012-.124-.02-.248-.028-.373-.002-.026-.005-.052-.006-.078-.007-.11-.017-.22-.022-.331-.012-.267-.02-.535-.02-.805 0-9.373 7.626-17 16.999-17 2.2 0 4.34.414 6.359 1.229 1.141.461 2.438-.09 2.899-1.231.46-1.14-.091-2.438-1.231-2.899" fill="#022438"/><path d="m44.972 33.096c-.007-.139-.019-.277-.028-.416-.015-.219-.033-.437-.055-.654-.019-.178-.038-.356-.06-.533-.02-.159-.044-.317-.067-.476-.268-1.81-.76-3.563-1.466-5.223l-.004.006c-.639-1.504-1.454-2.934-2.427-4.265l-.975 1.364-1.79 2.506-.002.003c.914 1.513 1.585 3.157 1.991 4.875.068.285.13.572.183.863.002.008.004.015.005.024.03.167.055.335.08.503.019.129.038.257.055.386.018.139.033.279.046.418.018.173.032.347.044.521.008.109.017.218.022.328.014.29.024.581.024.873 0 7.014-4.271 13.049-10.348 15.643-.026.011-.053.023-.079.034-.228.096-.458.187-.691.273-.033.012-.067.025-.101.037-.231.084-.464.164-.699.237-.031.01-.063.019-.095.029-.239.073-.479.142-.721.205-.029.007-.059.014-.089.022-.245.062-.49.12-.738.17-.033.007-.067.012-.1.019-.245.049-.49.094-.738.132-.051.008-.103.013-.154.021-.231.033-.462.065-.695.089-.103.011-.209.016-.313.025-.184.015-.368.033-.553.042-.294.015-.59.023-.887.023s-.594-.008-.888-.023c-.186-.01-.37-.027-.554-.042-.104-.009-.209-.014-.311-.025-.234-.024-.466-.056-.697-.089-.051-.007-.101-.012-.152-.021-.248-.038-.494-.084-.741-.132-.031-.006-.064-.012-.095-.019-.249-.051-.497-.109-.743-.171-.028-.007-.055-.013-.083-.021-.244-.063-.486-.133-.728-.207-.029-.009-.058-.017-.087-.026-.237-.074-.473-.155-.708-.239-.03-.011-.061-.022-.091-.033-.234-.087-.468-.179-.699-.277-.023-.009-.046-.019-.069-.029-.134-.057-.27-.11-.404-.171-1.119-.509-2.44-.018-2.95 1.102-.494 1.083-.042 2.35 1.004 2.893.184.086.368.171.555.251.064.027.127.054.191.081.261.109.524.214.791.312.07.026.141.052.211.077.267.096.536.188.808.274.066.021.133.04.199.06.277.085.557.165.839.238.061.016.123.03.185.045.286.072.574.14.865.2.065.013.13.024.194.036.288.057.576.11.868.156.084.012.168.022.252.033.274.039.548.077.824.105.142.014.285.022.428.034.221.019.443.039.666.051.372.019.745.029 1.121.029s.748-.01 1.12-.029c.224-.011.445-.032.667-.051.142-.012.286-.02.427-.034.277-.028.551-.066.824-.105.084-.011.168-.021.252-.033.291-.045.579-.099.866-.156.065-.012.131-.023.196-.036.29-.06.577-.128.862-.2.062-.016.125-.03.187-.046.281-.073.559-.154.836-.238.068-.02.135-.04.202-.061.27-.085.538-.177.804-.272.072-.026.144-.052.215-.078.265-.099.527-.202.787-.311.066-.027.131-.055.196-.083.186-.08.369-.165.552-.25 7.347-3.409 12.458-10.852 12.458-19.47 0-.369-.012-.736-.031-1.102" fill="#022438"/><path d="m17.717 31.504c.067.008.134.011.2.025-.066-.014-.133-.017-.2-.025" fill="#35d6a1"/><path d="m16.867 31.569c.067-.019.133-.042.202-.054-.068.012-.134.035-.202.054" fill="#35d6a1"/><path d="m17.279 31.496c.072-.006.142-.016.214-.015-.071-.001-.142.009-.214.015" fill="#35d6a1"/><path d="m18.122 31.591c.07.022.14.04.208.069-.068-.028-.138-.046-.208-.069" fill="#35d6a1"/><path d="m16.487 31.713c.055-.026.107-.058.164-.08-.056.022-.109.053-.164.08" fill="#35d6a1"/><path d="m16.222 31.853c-.044.029-.078.067-.119.099.051-.039.099-.082.152-.116-.01.007-.022.011-.033.018" fill="#35d6a1"/><path d="m38.097 25.408-3.717 5.204s3.717-5.204 3.717-5.204z" fill="#35d6a1"/><path d="m38.097 25.408.003-.004z" fill="#35d6a1"/><path d="m38.099 25.405 1.79-2.506z" fill="#35d6a1"/><path d="m8.602 42.275c.013.025.016.042.029.067.747 1.363 1.671 2.607 2.742 3.71l6.017-8.423-2.633-3.97-6.155 8.617z" fill="#1ec426" opacity=".4"/><path d="m36.269 20.3-1.093 1.519-4.42 6.19-7.445 10.456-3.98-5.997c-.866-1.274-2.803-1.308-3.702-.051l-.88 1.233 3.155 4.717 2.181 3.289 1.285 1.956c.43.616 1.097.964 1.822.985q.024.018.042-.006c.725.021 1.395-.332 1.82-.904l9.33-13.089 3.717-5.195 2.765-3.867c-.317-.421-.633-.841-.967-1.238-.072-.053-.125-.13-.179-.207-.43-.468-1.036-.697-1.631-.695-.701-.003-1.401.291-1.82.904z" fill="url(#a)"/><path d="m17.394 37.627.168.252-.799-1.198.63.945z" fill="#35d6a1"/></svg>