<?xml version="1.0" encoding="UTF-8"?>
<svg id="Layer_1" data-name="Layer 1" xmlns="http://www.w3.org/2000/svg" version="1.1" viewBox="0 0 204 70">
  <defs>
    <style>
      .cls-1 {
        fill: none;
      }

      .cls-1, .cls-2, .cls-3 {
        stroke-width: 0px;
      }

      .cls-2, .cls-3 {
        fill: #000;
      }

      .cls-3 {
        fill-rule: evenodd;
      }
    </style>
  </defs>
  <g id="Camada_1">
    <rect class="cls-1" x="24.221" y="0" width="155.558" height="70"/>
    <g id="_928762182912" data-name=" 928762182912">
      <path class="cls-3" d="M27.145,19.873h24.407c1.608,0,2.923,1.316,2.923,2.923v24.407c0,1.608-1.316,2.923-2.923,2.923h-24.407c-1.608,0-2.923-1.316-2.923-2.923v-24.407c0-1.608,1.316-2.923,2.923-2.923ZM32.896,32.056h0c.538,0,.979.44.979.979v4.509c0,.538-.44.979-.979.979h0c-.538,0-.979-.44-.979-.979v-4.509c0-.538.44-.979.979-.979ZM36.158,27.666h0c.538,0,.979.44.979.978v7.059c0,.538-.44.979-.979.979h0c-.538,0-.979-.44-.979-.979v-7.059c0-.538.44-.978.979-.978ZM39.361,30.751h0c.538,0,.979.44.979.979v8.246c0,.538-.44.978-.979.978h0c-.538,0-.978-.44-.978-.978v-8.246c0-.538.44-.979.978-.979ZM42.624,31.818h0c.538,0,.979.44.979.979v12.932c0,.538-.44.979-.979.979h0c-.538,0-.978-.44-.978-.979v-12.932c0-.538.44-.979.978-.979ZM45.887,23.513h0c.538,0,.979.44.979.979v15.483c0,.538-.44.979-.979.979h0c-.538,0-.978-.44-.978-.979v-15.483c0-.538.44-.979.978-.979Z"/>
      <path class="cls-2" d="M63.707,47.07v-22.293h-4.207v-2.579h11.761v2.579h-4.084v22.293h-3.47ZM72.13,47.07v-17.748h3.286v2.518c.655-1.085,1.31-1.812,1.965-2.18.655-.368,1.31-.553,1.965-.553h.23c.072,0,.169.01.292.031v3.624c-.246-.103-.527-.189-.845-.261-.317-.071-.639-.107-.967-.107-.512,0-.977.117-1.397.353-.42.236-.834.691-1.243,1.367v12.958h-3.286ZM83.746,47.315c-.696,0-1.31-.2-1.842-.599-.532-.399-.952-.911-1.259-1.535-.307-.625-.46-1.285-.46-1.981,0-1.105.184-2.037.553-2.794s.875-1.397,1.52-1.919c.645-.522,1.392-.978,2.242-1.367.85-.389,1.745-.768,2.687-1.136v-1.259c0-.717-.041-1.31-.123-1.781-.082-.471-.251-.824-.507-1.06-.256-.235-.639-.353-1.151-.353-.45,0-.814.102-1.09.307-.276.205-.476.496-.599.875-.123.379-.184.824-.184,1.336v.89l-3.255-.122c.041-1.965.491-3.414,1.351-4.345.859-.931,2.19-1.397,3.992-1.397,1.761,0,3.01.481,3.747,1.443.737.963,1.105,2.354,1.105,4.176v8.107c0,.553.015,1.085.046,1.597.031.511.071.988.122,1.427.052.44.097.855.138,1.244h-3.009c-.061-.328-.138-.742-.23-1.244-.092-.501-.159-.957-.2-1.366-.205.696-.599,1.346-1.183,1.95-.583.604-1.387.906-2.41.906ZM85.036,44.49c.328,0,.635-.092.921-.276.287-.184.543-.395.768-.63.225-.235.379-.425.461-.568v-5.036c-.512.286-.993.573-1.443.859-.45.287-.845.589-1.182.906-.338.317-.604.676-.799,1.075s-.291.855-.291,1.367c0,.716.133,1.279.399,1.689.266.409.655.614,1.167.614ZM96.407,47.315c-1.494,0-2.61-.548-3.347-1.643s-1.105-2.953-1.105-5.573v-3.439c0-1.351.113-2.605.338-3.762.225-1.156.65-2.083,1.274-2.779.624-.696,1.54-1.044,2.748-1.044.594,0,1.136.133,1.627.399.491.266.931.594,1.321.982v-8.26h3.285v24.872h-3.285v-1.136c-.389.409-.814.742-1.274.998-.461.256-.988.384-1.582.384ZM97.236,44.736c.307,0,.635-.056.983-.169.348-.112.696-.281,1.044-.506v-11.638c-.287-.205-.604-.384-.952-.537-.348-.154-.727-.23-1.136-.23-.757,0-1.269.363-1.535,1.09-.266.727-.399,1.602-.399,2.626v5.005c0,.819.046,1.561.138,2.226.092.665.282,1.187.569,1.566.286.379.716.568,1.289.568ZM109.436,47.315c-1.392,0-2.467-.271-3.224-.814-.757-.543-1.284-1.341-1.581-2.395s-.445-2.349-.445-3.884v-4.053c0-1.577.153-2.887.46-3.93.307-1.044.845-1.832,1.612-2.365.768-.532,1.827-.798,3.178-.798,1.494,0,2.595.307,3.301.921.706.614,1.172,1.499,1.397,2.656.226,1.156.338,2.544.338,4.161v1.443h-7.001v3.562c0,.716.067,1.3.2,1.75.133.451.348.783.645.998.297.215.681.323,1.151.323.491,0,.865-.117,1.121-.353.256-.235.43-.573.522-1.013.092-.44.138-.957.138-1.551v-1.074h3.193v.675c0,1.781-.379,3.183-1.136,4.207s-2.047,1.535-3.869,1.535ZM107.47,36.476h3.777v-1.597c0-.737-.041-1.356-.123-1.858s-.251-.88-.507-1.136c-.256-.256-.66-.384-1.213-.384-.532,0-.937.122-1.213.368-.276.245-.465.66-.568,1.243-.102.584-.154,1.387-.154,2.411,0,0,0,.952,0,.952ZM116.108,47.07v-17.748h3.04v1.689c.594-.676,1.249-1.177,1.965-1.505.716-.328,1.453-.491,2.21-.491.655,0,1.244.164,1.766.491s.896.911,1.121,1.75c.635-.778,1.325-1.346,2.073-1.704.747-.358,1.531-.537,2.349-.537.573,0,1.095.138,1.566.414.471.277.849.717,1.136,1.321.286.604.43,1.397.43,2.38v13.94h-3.009v-13.726c0-.86-.138-1.438-.415-1.735-.276-.297-.65-.445-1.121-.445-.45,0-.921.128-1.412.384-.491.256-.942.609-1.351,1.06v14.463h-3.009v-13.726c0-.86-.138-1.438-.414-1.735-.277-.297-.65-.445-1.121-.445-.451,0-.916.128-1.397.384-.481.256-.937.609-1.366,1.06v14.463s-3.04,0-3.04,0ZM140.56,47.315c-1.392,0-2.467-.271-3.224-.814-.757-.543-1.285-1.341-1.582-2.395-.297-1.054-.445-2.349-.445-3.884v-4.053c0-1.577.154-2.887.46-3.93.307-1.044.845-1.832,1.612-2.365s1.827-.798,3.178-.798c1.494,0,2.595.307,3.301.921.706.614,1.172,1.499,1.397,2.656.225,1.156.337,2.544.337,4.161v1.443h-7.001v3.562c0,.716.066,1.3.2,1.75.133.451.348.783.645.998.297.215.681.323,1.151.323.491,0,.865-.117,1.121-.353.256-.235.43-.573.522-1.013.092-.44.138-.957.138-1.551v-1.074h3.193v.675c0,1.781-.379,3.183-1.136,4.207s-2.047,1.535-3.869,1.535ZM138.595,36.476h3.777v-1.597c0-.737-.041-1.356-.123-1.858-.082-.502-.251-.88-.506-1.136s-.66-.384-1.213-.384c-.532,0-.937.122-1.213.368-.276.245-.465.66-.568,1.243-.102.584-.153,1.387-.153,2.411,0,0,0,.952,0,.952ZM151.962,47.315c-.921,0-1.663-.174-2.226-.522-.563-.348-.972-.84-1.228-1.474-.256-.635-.384-1.382-.384-2.242v-11.576h-1.874v-2.18h1.874v-5.189h3.285v5.189h2.856v2.18h-2.856v11.361c0,.696.113,1.193.338,1.489.225.297.655.446,1.29.446.164,0,.353-.01.568-.031.215-.021.425-.041.63-.062v2.426c-.41.062-.789.108-1.137.138-.348.031-.727.046-1.136.046ZM155.441,47.07v-17.748h3.285v2.518c.655-1.085,1.31-1.812,1.965-2.18.655-.368,1.31-.553,1.965-.553h.23c.071,0,.169.01.291.031v3.624c-.245-.103-.527-.189-.844-.261-.317-.071-.64-.107-.967-.107-.512,0-.978.117-1.397.353-.42.236-.834.691-1.244,1.367v12.958h-3.285ZM164.079,47.07v-17.748h3.285v17.748h-3.285ZM164.079,26.681v-3.439h3.285v3.439h-3.285ZM172.748,47.315c-.696,0-1.31-.2-1.842-.599-.532-.399-.952-.911-1.259-1.535-.307-.625-.46-1.285-.46-1.981,0-1.105.184-2.037.553-2.794s.875-1.397,1.52-1.919c.645-.522,1.392-.978,2.241-1.367.85-.389,1.745-.768,2.687-1.136v-1.259c0-.717-.041-1.31-.123-1.781-.082-.471-.251-.824-.507-1.06-.256-.235-.639-.353-1.151-.353-.45,0-.814.102-1.09.307-.276.205-.476.496-.599.875-.123.379-.184.824-.184,1.336v.89l-3.255-.122c.041-1.965.491-3.414,1.351-4.345.859-.931,2.19-1.397,3.992-1.397,1.761,0,3.009.481,3.746,1.443.737.963,1.105,2.354,1.105,4.176v8.107c0,.553.015,1.085.046,1.597.031.511.071.988.122,1.427.052.44.097.855.138,1.244h-3.009c-.062-.328-.138-.742-.23-1.244-.092-.501-.159-.957-.2-1.366-.205.696-.599,1.346-1.182,1.95-.583.604-1.387.906-2.41.906h0ZM174.037,44.49c.328,0,.634-.092.921-.276.286-.184.543-.395.768-.63.225-.235.379-.425.461-.568v-5.036c-.512.286-.993.573-1.443.859-.451.287-.845.589-1.183.906-.337.317-.604.676-.798,1.075-.194.399-.292.855-.292,1.367,0,.716.133,1.279.4,1.689.266.409.655.614,1.167.614h0Z"/>
    </g>
  </g>
</svg>