<?xml version="1.0" encoding="UTF-8"?>
<svg id="Layer_1" data-name="Layer 1" xmlns="http://www.w3.org/2000/svg" xmlns:xlink="http://www.w3.org/1999/xlink" version="1.1" viewBox="0 0 204 70">
  <defs>
    <clipPath id="clippath">
      <rect y="1.136" width="204" height="67.728" fill="none" stroke-width="0"/>
    </clipPath>
  </defs>
  <g clip-path="url(#clippath)">
    <g id="TraderSync_Logo_-_Original_-_Transparent_Background" data-name="TraderSync Logo - Original - Transparent Background">
      <g id="other_phone" data-name="other phone">
        <path id="Path_151" data-name="Path 151" d="M41.972,46.439v-22.87H0v22.87h41.972Z" fill="#6344d3" stroke-width="0"/>
        <path id="Path_152" data-name="Path 152" d="M18.306,46.439v22.532l23.683-22.532h-23.683Z" fill="#522886" stroke-width="0"/>
        <path id="Path_153" data-name="Path 153" d="M23.666,1.136L0,23.569h23.666V1.136Z" fill="#00ffb3" stroke-width="0"/>
        <path id="Path_154" data-name="Path 154" d="M18.306,53.434v-6.995h23.666l-23.666,6.995Z" fill="#2f1452" stroke-width="0"/>
        <path id="Path_155" data-name="Path 155" d="M23.666,16.574v6.995H0l23.666-6.995Z" fill="#00bf85" stroke-width="0"/>
        <path id="Path_156" data-name="Path 156" d="M41.972,23.569L0,33.932v-10.363h41.972Z" fill="#fff" isolation="isolate" opacity=".26" stroke-width="0"/>
        <g id="Group_29" data-name="Group 29">
          <path id="Path_157" data-name="Path 157" d="M61.494,40.442h-1.96v-9.263h-3.509v-1.802h8.979v1.802h-3.509v9.263Z" fill="#655dde" stroke-width="0"/>
          <path id="Path_158" data-name="Path 158" d="M78.108,40.442l-2.727-3.857h-2.442v3.857h-1.929v-11.065h4.932c.581-.008,1.16.075,1.715.245.474.143.915.38,1.296.695.353.301.632.68.814,1.107.347.863.378,1.82.087,2.703-.124.351-.309.677-.545.964-.235.282-.516.522-.83.711-.333.2-.692.351-1.067.45l2.988,4.189h-2.292ZM77.473,31.599c-.401-.313-.967-.469-1.696-.468h-2.838v3.731h2.854c.597.032,1.187-.148,1.665-.508.41-.332.639-.838.619-1.365,0-.614-.201-1.078-.603-1.389h0Z" fill="#655dde" stroke-width="0"/>
          <path id="Path_159" data-name="Path 159" d="M93.094,36.047l-1.913-4.427-1.897,4.427-.711,1.723-1.138,2.671h-1.992l4.869-11.145h1.802l4.869,11.145h-2.055l-1.122-2.671-.712-1.723Z" fill="#655dde" stroke-width="0"/>
          <path id="Path_160" data-name="Path 160" d="M112.411,37.083c-.275.666-.687,1.266-1.209,1.763-.54.507-1.174.904-1.866,1.17-.759.291-1.566.436-2.379.427h-4.125v-11.065h4.126c.812-.009,1.619.133,2.379.419.692.261,1.326.656,1.866,1.162.521.494.932,1.092,1.209,1.754.288.691.433,1.433.427,2.182.006.751-.14,1.496-.427,2.19ZM110.521,33.409c-.176-.447-.44-.855-.777-1.198-.344-.346-.757-.617-1.212-.794-.505-.196-1.043-.293-1.585-.286h-2.187v7.556h2.187c.541.007,1.079-.087,1.585-.278.454-.172.867-.437,1.212-.778.337-.34.602-.745.777-1.191.37-.977.37-2.055,0-3.032h0Z" fill="#655dde" stroke-width="0"/>
          <path id="Path_161" data-name="Path 161" d="M127.333,31.131h-6.26v2.845h5.549v1.754h-5.549v2.956h6.339v1.754h-8.268v-11.065h8.188v1.755Z" fill="#655dde" stroke-width="0"/>
          <path id="Path_162" data-name="Path 162" d="M140.786,40.442l-2.727-3.857h-2.442v3.857h-1.929v-11.065h4.932c.581-.008,1.16.075,1.715.245.474.143.915.38,1.296.695.353.301.632.68.814,1.107.347.863.378,1.82.087,2.703-.124.351-.309.677-.545.964-.235.282-.516.522-.83.711-.333.2-.692.351-1.067.45l2.988,4.189h-2.291ZM140.151,31.599c-.402-.313-.967-.469-1.697-.468h-2.838v3.731h2.854c.597.032,1.187-.148,1.665-.508.41-.332.639-.838.619-1.365.036-.533-.189-1.051-.602-1.389h0Z" fill="#655dde" stroke-width="0"/>
          <path id="Path_163" data-name="Path 163" d="M150.808,32.838c.094.18.233.333.404.443.25.163.522.291.808.379.343.116.779.237,1.308.364.525.13,1.041.293,1.545.49.407.154.784.376,1.117.656.288.247.517.555.673.901.161.382.239.794.23,1.209.009.485-.09.966-.29,1.408-.188.404-.464.76-.807,1.043-.367.296-.79.517-1.243.648-.518.152-1.056.227-1.595.221-.836.003-1.666-.144-2.45-.435-.801-.303-1.536-.756-2.166-1.336l1.17-1.391c.489.432,1.037.791,1.628,1.067.588.256,1.224.383,1.865.372.505.027,1.005-.106,1.431-.379.341-.229.541-.617.53-1.027.003-.184-.031-.367-.102-.538-.085-.177-.217-.327-.381-.435-.237-.157-.493-.282-.762-.371-.414-.142-.834-.264-1.26-.364-.535-.12-1.061-.273-1.577-.458-.418-.146-.809-.359-1.157-.632-.306-.246-.551-.56-.714-.917-.175-.415-.258-.862-.245-1.312-.006-.456.09-.907.282-1.32.184-.39.448-.738.775-1.02.349-.295.752-.518,1.188-.656.49-.157,1.002-.234,1.516-.229.746-.011,1.487.11,2.191.356.661.244,1.277.594,1.826,1.035l-1.043,1.47c-.463-.344-.967-.629-1.502-.846-.478-.191-.987-.291-1.502-.292-.474-.029-.944.108-1.328.388-.298.221-.473.57-.474.941-.005.195.032.389.111.569Z" fill="#655dde" stroke-width="0"/>
          <path id="Path_164" data-name="Path 164" d="M167.88,40.442h-1.96v-4.363l-4.395-6.702h2.292l3.098,4.9,3.13-4.9h2.229l-4.395,6.655v4.41Z" fill="#655dde" stroke-width="0"/>
          <path id="Path_165" data-name="Path 165" d="M185.648,29.376h1.929v11.065h-1.625l-6.089-7.872v7.872h-1.929v-11.065h1.798l5.916,7.65v-7.65Z" fill="#655dde" stroke-width="0"/>
          <path id="Path_166" data-name="Path 166" d="M203.107,39.485c-.313.238-.65.445-1.004.616-.375.179-.77.312-1.178.395-.466.093-.94.138-1.415.134-.77.008-1.534-.143-2.244-.442-1.35-.57-2.415-1.657-2.956-3.019-.566-1.437-.569-3.035-.008-4.474.542-1.379,1.616-2.481,2.98-3.059.73-.307,1.516-.46,2.308-.45.464-.004.927.038,1.383.126.394.077.778.197,1.146.356.339.148.662.331.964.545.296.211.575.444.838.696l-1.249,1.438c-.421-.396-.894-.731-1.408-.996-.525-.26-1.105-.39-1.691-.379-.504-.005-1.003.1-1.462.308-.44.199-.835.484-1.163.838-.331.36-.589.782-.759,1.241-.182.491-.273,1.01-.269,1.533-.004.526.087,1.048.269,1.541.17.464.427.891.759,1.257.326.358.722.646,1.163.846.459.208.958.313,1.462.308.603.016,1.2-.117,1.739-.388.523-.286,1.007-.64,1.439-1.051l1.249,1.265c-.274.296-.573.569-.893.814Z" fill="#655dde" stroke-width="0"/>
        </g>
      </g>
    </g>
  </g>
</svg>